<?xml version="1.0" standalone="no"?>
<!DOCTYPE svg PUBLIC "-//W3C//DTD SVG 20010904//EN"
 "http://www.w3.org/TR/2001/REC-SVG-20010904/DTD/svg10.dtd">
<svg version="1.0" xmlns="http://www.w3.org/2000/svg"
 width="700.000000pt" height="700.000000pt" viewBox="0 0 700.000000 700.000000"
 preserveAspectRatio="xMidYMid meet">
<metadata>
Created by potrace 1.11, written by Peter Selinger 2001-2013
</metadata>
<g transform="translate(0.000000,700.000000) scale(0.100000,-0.100000)"
fill="#000000" stroke="none">
<path d="M0 3500 l0 -3500 3500 0 3500 0 0 3500 0 3500 -3500 0 -3500 0 0
-3500z m3778 2559 c155 -11 367 -46 492 -80 609 -169 1130 -543 1469 -1054
109 -165 238 -415 219 -426 -7 -4 -103 -32 -213 -63 -110 -30 -384 -106 -608
-169 l-408 -114 -46 71 c-58 91 -246 278 -344 344 -151 101 -328 175 -496 209
-123 24 -377 24 -493 -1 -394 -85 -723 -332 -899 -676 -104 -203 -144 -367
-144 -595 -1 -360 124 -666 378 -920 186 -187 403 -305 665 -361 114 -25 369
-25 490 -1 178 35 349 107 500 210 102 70 263 233 335 340 32 48 65 87 72 87
8 0 67 -16 131 -35 64 -19 263 -77 442 -129 595 -173 645 -188 648 -191 7 -7
-124 -260 -183 -355 -621 -999 -1853 -1453 -2969 -1093 -505 163 -949 480
-1277 913 -254 335 -425 758 -491 1215 -20 138 -16 531 6 680 170 1123 1030
1993 2147 2171 199 31 371 38 577 23z m30 -1704 c273 -57 507 -244 622 -497
78 -172 95 -389 45 -583 -23 -89 -98 -235 -164 -318 -109 -137 -285 -250 -466
-298 -113 -30 -307 -30 -420 0 -252 67 -462 238 -571 466 -71 147 -100 305
-84 460 23 221 109 396 273 551 115 110 255 184 412 219 82 18 268 18 353 0z"/>
</g>
</svg>
