<svg data-v-d3f97b9e="" xmlns="http://www.w3.org/2000/svg" viewBox="0 0 542 90"><!----><!----><!----><g data-v-d3f97b9e="" id="b0f13adb-fa43-4153-9daa-e555598a190b" fill="white" transform="matrix(5.571030403879727,0,0,5.571030403879727,102.17475377202214,1.8523689335425146)"><path d="M5.29 2.86L5.29 2.86L5.29 2.86Q6.01 2.86 6.54 2.98L6.54 2.98L6.54 2.98Q7.07 3.10 7.42 3.31L7.42 3.31L7.42 3.31Q7.77 3.52 7.95 3.81L7.95 3.81L7.95 3.81Q8.12 4.09 8.12 4.43L8.12 4.43L8.12 4.43Q8.12 4.66 8.03 4.84L8.03 4.84L8.03 4.84Q7.94 5.02 7.77 5.14L7.77 5.14L7.77 5.14Q7.61 5.27 7.39 5.34L7.39 5.34L7.39 5.34Q7.16 5.41 6.90 5.41L6.90 5.41L6.90 5.41Q6.90 5.08 6.82 4.76L6.82 4.76L6.82 4.76Q6.73 4.44 6.54 4.18L6.54 4.18L6.54 4.18Q6.34 3.92 6.03 3.76L6.03 3.76L6.03 3.76Q5.72 3.60 5.26 3.60L5.26 3.60L5.26 3.60Q4.47 3.60 3.92 3.89L3.92 3.89L3.92 3.89Q3.36 4.18 3.01 4.74L3.01 4.74L3.01 4.74Q2.67 5.30 2.51 6.11L2.51 6.11L2.51 6.11Q2.35 6.93 2.35 7.98L2.35 7.98L2.35 7.98Q2.35 8.92 2.52 9.70L2.52 9.70L2.52 9.70Q2.68 10.48 3.04 11.04L3.04 11.04L3.04 11.04Q3.39 11.59 3.94 11.90L3.94 11.90L3.94 11.90Q4.49 12.21 5.26 12.21L5.26 12.21L5.26 12.21Q5.78 12.21 6.17 12.11L6.17 12.11L6.17 12.11Q6.56 12.01 6.86 11.85L6.86 11.85L6.86 11.85Q7.16 11.68 7.39 11.47L7.39 11.47L7.39 11.47Q7.62 11.25 7.80 11.02L7.80 11.02L7.80 11.02Q7.92 11.09 7.99 11.22L7.99 11.22L7.99 11.22Q8.07 11.35 8.07 11.57L8.07 11.57L8.07 11.57Q8.07 11.83 7.89 12.11L7.89 12.11L7.89 12.11Q7.70 12.39 7.33 12.61L7.33 12.61L7.33 12.61Q6.97 12.84 6.40 12.98L6.40 12.98L6.40 12.98Q5.83 13.13 5.05 13.13L5.05 13.13L5.05 13.13Q4.01 13.13 3.21 12.76L3.21 12.76L3.21 12.76Q2.42 12.39 1.88 11.72L1.88 11.72L1.88 11.72Q1.35 11.04 1.07 10.09L1.07 10.09L1.07 10.09Q0.80 9.14 0.80 7.98L0.80 7.98L0.80 7.98Q0.80 6.85 1.09 5.91L1.09 5.91L1.09 5.91Q1.37 4.96 1.94 4.29L1.94 4.29L1.94 4.29Q2.50 3.61 3.34 3.23L3.34 3.23L3.34 3.23Q4.18 2.86 5.29 2.86ZM10.65 10.96L10.65 10.96L10.65 10.96Q10.65 11.62 10.93 11.95L10.93 11.95L10.93 11.95Q11.20 12.27 11.79 12.27L11.79 12.27L11.79 12.27Q12.21 12.27 12.55 12.13L12.55 12.13L12.55 12.13Q12.90 12.00 13.14 11.74L13.14 11.74L13.14 11.74Q13.38 11.49 13.51 11.13L13.51 11.13L13.51 11.13Q13.64 10.77 13.64 10.32L13.64 10.32L13.64 9.19L12.75 9.23L12.75 9.23Q12.15 9.26 11.75 9.38L11.75 9.38L11.75 9.38Q11.35 9.50 11.11 9.71L11.11 9.71L11.11 9.71Q10.86 9.93 10.76 10.24L10.76 10.24L10.76 10.24Q10.65 10.55 10.65 10.96ZM12.35 6.05L12.35 6.05L12.35 6.05Q11.94 6.05 11.69 6.16L11.69 6.16L11.69 6.16Q11.44 6.28 11.30 6.48L11.30 6.48L11.30 6.48Q11.16 6.69 11.12 6.97L11.12 6.97L11.12 6.97Q11.07 7.25 11.07 7.57L11.07 7.57L11.07 7.57Q10.49 7.57 10.18 7.38L10.18 7.38L10.18 7.38Q9.88 7.18 9.88 6.69L9.88 6.69L9.88 6.69Q9.88 6.33 10.08 6.08L10.08 6.08L10.08 6.08Q10.27 5.82 10.62 5.66L10.62 5.66L10.62 5.66Q10.96 5.50 11.42 5.43L11.42 5.43L11.42 5.43Q11.88 5.35 12.40 5.35L12.40 5.35L12.40 5.35Q13.04 5.35 13.52 5.48L13.52 5.48L13.52 5.48Q14 5.61 14.32 5.89L14.32 5.89L14.32 5.89Q14.64 6.18 14.80 6.64L14.80 6.64L14.80 6.64Q14.96 7.10 14.96 7.77L14.96 7.77L14.96 11.40L14.96 11.40Q14.96 11.70 15.01 11.89L15.01 11.89L15.01 11.89Q15.06 12.08 15.16 12.20L15.16 12.20L15.16 12.20Q15.26 12.31 15.43 12.36L15.43 12.36L15.43 12.36Q15.60 12.41 15.83 12.41L15.83 12.41L15.87 12.41L15.87 13.00L13.98 13.00L13.76 11.79L13.64 11.79L13.64 11.79Q13.43 12.09 13.22 12.33L13.22 12.33L13.22 12.33Q13.02 12.58 12.77 12.76L12.77 12.76L12.77 12.76Q12.52 12.93 12.21 13.03L12.21 13.03L12.21 13.03Q11.90 13.13 11.46 13.13L11.46 13.13L11.46 13.13Q11.00 13.13 10.60 13.00L10.60 13.00L10.60 13.00Q10.20 12.87 9.91 12.59L9.91 12.59L9.91 12.59Q9.62 12.31 9.45 11.89L9.45 11.89L9.45 11.89Q9.29 11.47 9.29 10.90L9.29 10.90L9.29 10.90Q9.29 9.78 10.08 9.24L10.08 9.24L10.08 9.24Q10.88 8.70 12.48 8.65L12.48 8.65L13.64 8.61L13.64 7.77L13.64 7.77Q13.64 7.40 13.60 7.08L13.60 7.08L13.60 7.08Q13.56 6.76 13.43 6.53L13.43 6.53L13.43 6.53Q13.29 6.30 13.03 6.18L13.03 6.18L13.03 6.18Q12.78 6.05 12.35 6.05ZM20.98 12.41L20.98 13.00L16.94 13.00L16.94 12.41L16.98 12.41L16.98 12.41Q17.22 12.41 17.43 12.37L17.43 12.37L17.43 12.37Q17.64 12.34 17.79 12.23L17.79 12.23L17.79 12.23Q17.94 12.13 18.04 11.93L18.04 11.93L18.04 11.93Q18.13 11.73 18.13 11.40L18.13 11.40L18.13 7.03L18.13 7.03Q18.13 6.73 18.04 6.54L18.04 6.54L18.04 6.54Q17.94 6.35 17.79 6.25L17.79 6.25L17.79 6.25Q17.63 6.15 17.42 6.11L17.42 6.11L17.42 6.11Q17.21 6.08 16.98 6.08L16.98 6.08L16.94 6.08L16.94 5.49L19.09 5.49L19.36 6.88L19.43 6.88L19.43 6.88Q19.56 6.56 19.71 6.29L19.71 6.29L19.71 6.29Q19.85 6.01 20.06 5.80L20.06 5.80L20.06 5.80Q20.27 5.59 20.58 5.47L20.58 5.47L20.58 5.47Q20.88 5.35 21.35 5.35L21.35 5.35L21.35 5.35Q22.11 5.35 22.49 5.62L22.49 5.62L22.49 5.62Q22.86 5.89 22.86 6.37L22.86 6.37L22.86 6.37Q22.86 6.59 22.79 6.77L22.79 6.77L22.79 6.77Q22.72 6.96 22.56 7.09L22.56 7.09L22.56 7.09Q22.40 7.23 22.16 7.30L22.16 7.30L22.16 7.30Q21.91 7.37 21.55 7.37L21.55 7.37L21.55 7.37Q21.55 6.79 21.39 6.53L21.39 6.53L21.39 6.53Q21.23 6.28 20.82 6.28L20.82 6.28L20.82 6.28Q20.56 6.28 20.35 6.42L20.35 6.42L20.35 6.42Q20.15 6.57 19.99 6.81L19.99 6.81L19.99 6.81Q19.84 7.05 19.73 7.37L19.73 7.37L19.73 7.37Q19.63 7.68 19.56 8.02L19.56 8.02L19.56 8.02Q19.50 8.35 19.47 8.67L19.47 8.67L19.47 8.67Q19.44 9.00 19.44 9.27L19.44 9.27L19.44 11.47L19.44 11.47Q19.44 11.78 19.53 11.97L19.53 11.97L19.53 11.97Q19.63 12.15 19.78 12.25L19.78 12.25L19.78 12.25Q19.94 12.35 20.15 12.38L20.15 12.38L20.15 12.38Q20.36 12.41 20.59 12.41L20.59 12.41L20.98 12.41ZM23.26 12.41L23.43 12.41L23.43 12.41Q23.67 12.41 23.88 12.37L23.88 12.37L23.88 12.37Q24.09 12.34 24.24 12.23L24.24 12.23L24.24 12.23Q24.40 12.13 24.49 11.93L24.49 11.93L24.49 11.93Q24.58 11.73 24.58 11.40L24.58 11.40L24.58 3.90L24.58 3.90Q24.58 3.59 24.49 3.40L24.49 3.40L24.49 3.40Q24.40 3.21 24.24 3.11L24.24 3.11L24.24 3.11Q24.08 3.01 23.87 2.98L23.87 2.98L23.87 2.98Q23.67 2.95 23.43 2.95L23.43 2.95L23.26 2.95L23.26 2.36L25.90 2.36L25.90 11.40L25.90 11.40Q25.90 11.73 25.99 11.93L25.99 11.93L25.99 11.93Q26.08 12.13 26.24 12.23L26.24 12.23L26.24 12.23Q26.39 12.34 26.60 12.37L26.60 12.37L26.60 12.37Q26.81 12.41 27.05 12.41L27.05 12.41L27.23 12.41L27.23 13.00L23.26 13.00L23.26 12.41ZM34.72 9.23L34.72 9.23L34.72 9.23Q34.72 11.20 33.88 12.17L33.88 12.17L33.88 12.17Q33.04 13.13 31.43 13.13L31.43 13.13L31.43 13.13Q30.67 13.13 30.07 12.89L30.07 12.89L30.07 12.89Q29.47 12.65 29.05 12.17L29.05 12.17L29.05 12.17Q28.63 11.68 28.41 10.95L28.41 10.95L28.41 10.95Q28.18 10.21 28.18 9.23L28.18 9.23L28.18 9.23Q28.18 7.27 29.02 6.31L29.02 6.31L29.02 6.31Q29.85 5.35 31.47 5.35L31.47 5.35L31.47 5.35Q32.23 5.35 32.83 5.59L32.83 5.59L32.83 5.59Q33.43 5.82 33.85 6.31L33.85 6.31L33.85 6.31Q34.28 6.79 34.50 7.52L34.50 7.52L34.50 7.52Q34.72 8.24 34.72 9.23ZM29.54 9.23L29.54 9.23L29.54 9.23Q29.54 10.01 29.64 10.60L29.64 10.60L29.64 10.60Q29.74 11.20 29.97 11.60L29.97 11.60L29.97 11.60Q30.20 12.00 30.57 12.20L30.57 12.20L30.57 12.20Q30.93 12.41 31.46 12.41L31.46 12.41L31.46 12.41Q31.99 12.41 32.35 12.20L32.35 12.20L32.35 12.20Q32.71 12.00 32.94 11.60L32.94 11.60L32.94 11.60Q33.16 11.20 33.26 10.60L33.26 10.60L33.26 10.60Q33.36 10.01 33.36 9.23L33.36 9.23L33.36 9.23Q33.36 8.45 33.26 7.86L33.26 7.86L33.26 7.86Q33.15 7.27 32.93 6.88L32.93 6.88L32.93 6.88Q32.70 6.49 32.34 6.29L32.34 6.29L32.34 6.29Q31.97 6.09 31.45 6.09L31.45 6.09L31.45 6.09Q30.92 6.09 30.56 6.29L30.56 6.29L30.56 6.29Q30.19 6.49 29.97 6.88L29.97 6.88L29.97 6.88Q29.74 7.27 29.64 7.86L29.64 7.86L29.64 7.86Q29.54 8.45 29.54 9.23ZM38.43 13.13L38.43 13.13L38.43 13.13Q37.91 13.13 37.48 13.04L37.48 13.04L37.48 13.04Q37.05 12.95 36.75 12.76L36.75 12.76L36.75 12.76Q36.45 12.57 36.29 12.29L36.29 12.29L36.29 12.29Q36.12 12.02 36.12 11.65L36.12 11.65L36.12 11.65Q36.12 11.37 36.21 11.18L36.21 11.18L36.21 11.18Q36.31 10.99 36.44 10.88L36.44 10.88L36.44 10.88Q36.57 10.77 36.73 10.73L36.73 10.73L36.73 10.73Q36.88 10.68 37.00 10.68L37.00 10.68L37.00 10.68Q37.00 11.05 37.08 11.38L37.08 11.38L37.08 11.38Q37.15 11.70 37.33 11.94L37.33 11.94L37.33 11.94Q37.51 12.18 37.80 12.32L37.80 12.32L37.80 12.32Q38.09 12.46 38.51 12.46L38.51 12.46L38.51 12.46Q38.89 12.46 39.18 12.37L39.18 12.37L39.18 12.37Q39.46 12.28 39.66 12.11L39.66 12.11L39.66 12.11Q39.85 11.94 39.96 11.71L39.96 11.71L39.96 11.71Q40.06 11.47 40.06 11.19L40.06 11.19L40.06 11.19Q40.06 10.93 39.98 10.74L39.98 10.74L39.98 10.74Q39.90 10.55 39.71 10.39L39.71 10.39L39.71 10.39Q39.51 10.23 39.18 10.06L39.18 10.06L39.18 10.06Q38.84 9.88 38.34 9.67L38.34 9.67L38.34 9.67Q37.80 9.43 37.40 9.20L37.40 9.20L37.40 9.20Q37.00 8.98 36.74 8.72L36.74 8.72L36.74 8.72Q36.48 8.46 36.35 8.13L36.35 8.13L36.35 8.13Q36.22 7.80 36.22 7.34L36.22 7.34L36.22 7.34Q36.22 6.86 36.40 6.49L36.40 6.49L36.40 6.49Q36.59 6.13 36.94 5.88L36.94 5.88L36.94 5.88Q37.29 5.63 37.78 5.50L37.78 5.50L37.78 5.50Q38.26 5.37 38.86 5.37L38.86 5.37L38.86 5.37Q39.35 5.37 39.74 5.47L39.74 5.47L39.74 5.47Q40.12 5.57 40.38 5.75L40.38 5.75L40.38 5.75Q40.64 5.92 40.77 6.16L40.77 6.16L40.77 6.16Q40.90 6.39 40.90 6.65L40.90 6.65L40.90 6.65Q40.90 7.03 40.64 7.26L40.64 7.26L40.64 7.26Q40.37 7.49 39.89 7.49L39.89 7.49L39.89 7.49Q39.89 6.79 39.60 6.40L39.60 6.40L39.60 6.40Q39.31 6.01 38.68 6.01L38.68 6.01L38.68 6.01Q38.33 6.01 38.08 6.09L38.08 6.09L38.08 6.09Q37.82 6.17 37.66 6.32L37.66 6.32L37.66 6.32Q37.50 6.47 37.43 6.68L37.43 6.68L37.43 6.68Q37.35 6.88 37.35 7.13L37.35 7.13L37.35 7.13Q37.35 7.40 37.45 7.59L37.45 7.59L37.45 7.59Q37.54 7.79 37.75 7.95L37.75 7.95L37.75 7.95Q37.96 8.11 38.29 8.27L38.29 8.27L38.29 8.27Q38.62 8.42 39.09 8.61L39.09 8.61L39.09 8.61Q39.64 8.85 40.04 9.07L40.04 9.07L40.04 9.07Q40.43 9.30 40.69 9.56L40.69 9.56L40.69 9.56Q40.95 9.83 41.07 10.17L41.07 10.17L41.07 10.17Q41.19 10.50 41.19 10.94L41.19 10.94L41.19 10.94Q41.19 11.48 41.00 11.89L41.00 11.89L41.00 11.89Q40.80 12.30 40.43 12.58L40.43 12.58L40.43 12.58Q40.07 12.86 39.56 13.00L39.56 13.00L39.56 13.00Q39.05 13.13 38.43 13.13ZM48.90 13.13L48.90 13.13L48.90 13.13Q48.22 13.13 47.70 12.99L47.70 12.99L47.70 12.99Q47.17 12.84 46.82 12.59L46.82 12.59L46.82 12.59Q46.47 12.33 46.29 11.97L46.29 11.97L46.29 11.97Q46.12 11.60 46.12 11.16L46.12 11.16L46.12 11.16Q46.12 10.74 46.38 10.48L46.38 10.48L46.38 10.48Q46.64 10.22 47.13 10.22L47.13 10.22L47.13 10.22Q47.15 10.66 47.26 11.06L47.26 11.06L47.26 11.06Q47.37 11.46 47.60 11.77L47.60 11.77L47.60 11.77Q47.82 12.08 48.17 12.26L48.17 12.26L48.17 12.26Q48.52 12.45 49.01 12.45L49.01 12.45L49.01 12.45Q49.96 12.45 50.49 11.99L50.49 11.99L50.49 11.99Q51.02 11.54 51.02 10.68L51.02 10.68L51.02 10.68Q51.02 10.30 50.91 10.01L50.91 10.01L50.91 10.01Q50.80 9.71 50.54 9.46L50.54 9.46L50.54 9.46Q50.29 9.21 49.88 8.99L49.88 8.99L49.88 8.99Q49.46 8.76 48.85 8.50L48.85 8.50L48.85 8.50Q48.20 8.24 47.71 7.93L47.71 7.93L47.71 7.93Q47.23 7.63 46.91 7.26L46.91 7.26L46.91 7.26Q46.59 6.88 46.43 6.43L46.43 6.43L46.43 6.43Q46.27 5.97 46.27 5.39L46.27 5.39L46.27 5.39Q46.27 4.79 46.50 4.32L46.50 4.32L46.50 4.32Q46.73 3.85 47.14 3.52L47.14 3.52L47.14 3.52Q47.55 3.20 48.11 3.03L48.11 3.03L48.11 3.03Q48.67 2.86 49.33 2.86L49.33 2.86L49.33 2.86Q49.96 2.86 50.45 2.99L50.45 2.99L50.45 2.99Q50.93 3.12 51.27 3.34L51.27 3.34L51.27 3.34Q51.60 3.55 51.78 3.84L51.78 3.84L51.78 3.84Q51.95 4.12 51.95 4.43L51.95 4.43L51.95 4.43Q51.95 4.88 51.66 5.11L51.66 5.11L51.66 5.11Q51.36 5.34 50.85 5.34L50.85 5.34L50.85 5.34Q50.85 5.01 50.77 4.69L50.77 4.69L50.77 4.69Q50.70 4.38 50.51 4.13L50.51 4.13L50.51 4.13Q50.33 3.88 50.03 3.72L50.03 3.72L50.03 3.72Q49.72 3.56 49.28 3.56L49.28 3.56L49.28 3.56Q48.88 3.56 48.56 3.67L48.56 3.67L48.56 3.67Q48.24 3.79 48.02 4.00L48.02 4.00L48.02 4.00Q47.80 4.20 47.69 4.50L47.69 4.50L47.69 4.50Q47.57 4.79 47.57 5.15L47.57 5.15L47.57 5.15Q47.57 5.57 47.68 5.89L47.68 5.89L47.68 5.89Q47.79 6.21 48.05 6.46L48.05 6.46L48.05 6.46Q48.30 6.72 48.72 6.95L48.72 6.95L48.72 6.95Q49.14 7.18 49.75 7.42L49.75 7.42L49.75 7.42Q50.36 7.68 50.84 7.96L50.84 7.96L50.84 7.96Q51.32 8.24 51.66 8.58L51.66 8.58L51.66 8.58Q51.99 8.93 52.17 9.35L52.17 9.35L52.17 9.35Q52.35 9.78 52.35 10.32L52.35 10.32L52.35 10.32Q52.35 10.99 52.11 11.51L52.11 11.51L52.11 11.51Q51.86 12.03 51.41 12.39L51.41 12.39L51.41 12.39Q50.96 12.76 50.33 12.94L50.33 12.94L50.33 12.94Q49.69 13.13 48.90 13.13ZM55.12 10.96L55.12 10.96L55.12 10.96Q55.12 11.62 55.40 11.95L55.40 11.95L55.40 11.95Q55.67 12.27 56.25 12.27L56.25 12.27L56.25 12.27Q56.68 12.27 57.02 12.13L57.02 12.13L57.02 12.13Q57.37 12.00 57.61 11.74L57.61 11.74L57.61 11.74Q57.85 11.49 57.98 11.13L57.98 11.13L57.98 11.13Q58.11 10.77 58.11 10.32L58.11 10.32L58.11 9.19L57.22 9.23L57.22 9.23Q56.62 9.26 56.22 9.38L56.22 9.38L56.22 9.38Q55.82 9.50 55.58 9.71L55.58 9.71L55.58 9.71Q55.33 9.93 55.22 10.24L55.22 10.24L55.22 10.24Q55.12 10.55 55.12 10.96ZM56.81 6.05L56.81 6.05L56.81 6.05Q56.41 6.05 56.16 6.16L56.16 6.16L56.16 6.16Q55.91 6.28 55.77 6.48L55.77 6.48L55.77 6.48Q55.63 6.69 55.58 6.97L55.58 6.97L55.58 6.97Q55.54 7.25 55.54 7.57L55.54 7.57L55.54 7.57Q54.95 7.57 54.65 7.38L54.65 7.38L54.65 7.38Q54.35 7.18 54.35 6.69L54.35 6.69L54.35 6.69Q54.35 6.33 54.54 6.08L54.54 6.08L54.54 6.08Q54.74 5.82 55.09 5.66L55.09 5.66L55.09 5.66Q55.43 5.50 55.89 5.43L55.89 5.43L55.89 5.43Q56.35 5.35 56.87 5.35L56.87 5.35L56.87 5.35Q57.51 5.35 57.99 5.48L57.99 5.48L57.99 5.48Q58.47 5.61 58.79 5.89L58.79 5.89L58.79 5.89Q59.11 6.18 59.27 6.64L59.27 6.64L59.27 6.64Q59.43 7.10 59.43 7.77L59.43 7.77L59.43 11.40L59.43 11.40Q59.43 11.70 59.48 11.89L59.48 11.89L59.48 11.89Q59.53 12.08 59.63 12.20L59.63 12.20L59.63 12.20Q59.73 12.31 59.90 12.36L59.90 12.36L59.90 12.36Q60.07 12.41 60.30 12.41L60.30 12.41L60.34 12.41L60.34 13.00L58.45 13.00L58.23 11.79L58.11 11.79L58.11 11.79Q57.89 12.09 57.69 12.33L57.69 12.33L57.69 12.33Q57.48 12.58 57.24 12.76L57.24 12.76L57.24 12.76Q56.99 12.93 56.68 13.03L56.68 13.03L56.68 13.03Q56.37 13.13 55.93 13.13L55.93 13.13L55.93 13.13Q55.47 13.13 55.07 13.00L55.07 13.00L55.07 13.00Q54.67 12.87 54.38 12.59L54.38 12.59L54.38 12.59Q54.09 12.31 53.92 11.89L53.92 11.89L53.92 11.89Q53.76 11.47 53.76 10.90L53.76 10.90L53.76 10.90Q53.76 9.78 54.55 9.24L54.55 9.24L54.55 9.24Q55.34 8.70 56.95 8.65L56.95 8.65L58.11 8.61L58.11 7.77L58.11 7.77Q58.11 7.40 58.07 7.08L58.07 7.08L58.07 7.08Q58.03 6.76 57.89 6.53L57.89 6.53L57.89 6.53Q57.76 6.30 57.50 6.18L57.50 6.18L57.50 6.18Q57.24 6.05 56.81 6.05ZM61.13 12.41L61.30 12.41L61.30 12.41Q61.54 12.41 61.75 12.37L61.75 12.37L61.75 12.37Q61.96 12.34 62.11 12.23L62.11 12.23L62.11 12.23Q62.27 12.13 62.36 11.93L62.36 11.93L62.36 11.93Q62.45 11.73 62.45 11.40L62.45 11.40L62.45 3.90L62.45 3.90Q62.45 3.59 62.36 3.40L62.36 3.40L62.36 3.40Q62.27 3.21 62.11 3.11L62.11 3.11L62.11 3.11Q61.95 3.01 61.75 2.98L61.75 2.98L61.75 2.98Q61.54 2.95 61.30 2.95L61.30 2.95L61.13 2.95L61.13 2.36L63.77 2.36L63.77 11.40L63.77 11.40Q63.77 11.73 63.86 11.93L63.86 11.93L63.86 11.93Q63.95 12.13 64.11 12.23L64.11 12.23L64.11 12.23Q64.26 12.34 64.47 12.37L64.47 12.37L64.47 12.37Q64.68 12.41 64.92 12.41L64.92 12.41L65.10 12.41L65.10 13.00L61.13 13.00L61.13 12.41ZM67.34 10.96L67.34 10.96L67.34 10.96Q67.34 11.62 67.62 11.95L67.62 11.95L67.62 11.95Q67.89 12.27 68.48 12.27L68.48 12.27L68.48 12.27Q68.90 12.27 69.24 12.13L69.24 12.13L69.24 12.13Q69.59 12.00 69.83 11.74L69.83 11.74L69.83 11.74Q70.08 11.49 70.21 11.13L70.21 11.13L70.21 11.13Q70.33 10.77 70.33 10.32L70.33 10.32L70.33 9.19L69.44 9.23L69.44 9.23Q68.84 9.26 68.44 9.38L68.44 9.38L68.44 9.38Q68.04 9.50 67.80 9.71L67.80 9.71L67.80 9.71Q67.55 9.93 67.45 10.24L67.45 10.24L67.45 10.24Q67.34 10.55 67.34 10.96ZM69.04 6.05L69.04 6.05L69.04 6.05Q68.63 6.05 68.38 6.16L68.38 6.16L68.38 6.16Q68.13 6.28 67.99 6.48L67.99 6.48L67.99 6.48Q67.85 6.69 67.81 6.97L67.81 6.97L67.81 6.97Q67.76 7.25 67.76 7.57L67.76 7.57L67.76 7.57Q67.18 7.57 66.87 7.38L66.87 7.38L66.87 7.38Q66.57 7.18 66.57 6.69L66.57 6.69L66.57 6.69Q66.57 6.33 66.77 6.08L66.77 6.08L66.77 6.08Q66.96 5.82 67.31 5.66L67.31 5.66L67.31 5.66Q67.66 5.50 68.11 5.43L68.11 5.43L68.11 5.43Q68.57 5.35 69.09 5.35L69.09 5.35L69.09 5.35Q69.73 5.35 70.21 5.48L70.21 5.48L70.21 5.48Q70.69 5.61 71.01 5.89L71.01 5.89L71.01 5.89Q71.33 6.18 71.49 6.64L71.49 6.64L71.49 6.64Q71.65 7.10 71.65 7.77L71.65 7.77L71.65 11.40L71.65 11.40Q71.65 11.70 71.70 11.89L71.70 11.89L71.70 11.89Q71.75 12.08 71.85 12.20L71.85 12.20L71.85 12.20Q71.96 12.31 72.12 12.36L72.12 12.36L72.12 12.36Q72.29 12.41 72.52 12.41L72.52 12.41L72.56 12.41L72.56 13.00L70.67 13.00L70.45 11.79L70.33 11.79L70.33 11.79Q70.12 12.09 69.91 12.33L69.91 12.33L69.91 12.33Q69.71 12.58 69.46 12.76L69.46 12.76L69.46 12.76Q69.21 12.93 68.90 13.03L68.90 13.03L68.90 13.03Q68.59 13.13 68.15 13.13L68.15 13.13L68.15 13.13Q67.69 13.13 67.29 13.00L67.29 13.00L67.29 13.00Q66.89 12.87 66.60 12.59L66.60 12.59L66.60 12.59Q66.31 12.31 66.14 11.89L66.14 11.89L66.14 11.89Q65.98 11.47 65.98 10.90L65.98 10.90L65.98 10.90Q65.98 9.78 66.77 9.24L66.77 9.24L66.77 9.24Q67.57 8.70 69.17 8.65L69.17 8.65L70.33 8.61L70.33 7.77L70.33 7.77Q70.33 7.40 70.29 7.08L70.29 7.08L70.29 7.08Q70.25 6.76 70.12 6.53L70.12 6.53L70.12 6.53Q69.98 6.30 69.72 6.18L69.72 6.18L69.72 6.18Q69.47 6.05 69.04 6.05ZM76.10 13.13L76.10 13.13L76.10 13.13Q75.58 13.13 75.15 13.04L75.15 13.04L75.15 13.04Q74.72 12.95 74.42 12.76L74.42 12.76L74.42 12.76Q74.12 12.57 73.96 12.29L73.96 12.29L73.96 12.29Q73.79 12.02 73.79 11.65L73.79 11.65L73.79 11.65Q73.79 11.37 73.89 11.18L73.89 11.18L73.89 11.18Q73.98 10.99 74.11 10.88L74.11 10.88L74.11 10.88Q74.25 10.77 74.40 10.73L74.40 10.73L74.40 10.73Q74.55 10.68 74.68 10.68L74.68 10.68L74.68 10.68Q74.68 11.05 74.75 11.38L74.75 11.38L74.75 11.38Q74.83 11.70 75.00 11.94L75.00 11.94L75.00 11.94Q75.18 12.18 75.47 12.32L75.47 12.32L75.47 12.32Q75.76 12.46 76.19 12.46L76.19 12.46L76.19 12.46Q76.56 12.46 76.85 12.37L76.85 12.37L76.85 12.37Q77.14 12.28 77.33 12.11L77.33 12.11L77.33 12.11Q77.53 11.94 77.63 11.71L77.63 11.71L77.63 11.71Q77.73 11.47 77.73 11.19L77.73 11.19L77.73 11.19Q77.73 10.93 77.65 10.74L77.65 10.74L77.65 10.74Q77.57 10.55 77.38 10.39L77.38 10.39L77.38 10.39Q77.18 10.23 76.85 10.06L76.85 10.06L76.85 10.06Q76.51 9.88 76.01 9.67L76.01 9.67L76.01 9.67Q75.47 9.43 75.07 9.20L75.07 9.20L75.07 9.20Q74.67 8.98 74.41 8.72L74.41 8.72L74.41 8.72Q74.15 8.46 74.02 8.13L74.02 8.13L74.02 8.13Q73.89 7.80 73.89 7.34L73.89 7.34L73.89 7.34Q73.89 6.86 74.08 6.49L74.08 6.49L74.08 6.49Q74.27 6.13 74.61 5.88L74.61 5.88L74.61 5.88Q74.96 5.63 75.45 5.50L75.45 5.50L75.45 5.50Q75.93 5.37 76.53 5.37L76.53 5.37L76.53 5.37Q77.03 5.37 77.41 5.47L77.41 5.47L77.41 5.47Q77.79 5.57 78.05 5.75L78.05 5.75L78.05 5.75Q78.31 5.92 78.44 6.16L78.44 6.16L78.44 6.16Q78.57 6.39 78.57 6.65L78.57 6.65L78.57 6.65Q78.57 7.03 78.31 7.26L78.31 7.26L78.31 7.26Q78.05 7.49 77.56 7.49L77.56 7.49L77.56 7.49Q77.56 6.79 77.27 6.40L77.27 6.40L77.27 6.40Q76.98 6.01 76.36 6.01L76.36 6.01L76.36 6.01Q76.00 6.01 75.75 6.09L75.75 6.09L75.75 6.09Q75.50 6.17 75.34 6.32L75.34 6.32L75.34 6.32Q75.17 6.47 75.10 6.68L75.10 6.68L75.10 6.68Q75.02 6.88 75.02 7.13L75.02 7.13L75.02 7.13Q75.02 7.40 75.12 7.59L75.12 7.59L75.12 7.59Q75.22 7.79 75.42 7.95L75.42 7.95L75.42 7.95Q75.63 8.11 75.96 8.27L75.96 8.27L75.96 8.27Q76.30 8.42 76.76 8.61L76.76 8.61L76.76 8.61Q77.31 8.85 77.71 9.07L77.71 9.07L77.71 9.07Q78.11 9.30 78.36 9.56L78.36 9.56L78.36 9.56Q78.62 9.83 78.74 10.17L78.74 10.17L78.74 10.17Q78.87 10.50 78.87 10.94L78.87 10.94L78.87 10.94Q78.87 11.48 78.67 11.89L78.67 11.89L78.67 11.89Q78.47 12.30 78.11 12.58L78.11 12.58L78.11 12.58Q77.75 12.86 77.24 13.00L77.24 13.00L77.24 13.00Q76.73 13.13 76.10 13.13Z"></path></g><!----><g data-v-d3f97b9e="" id="a137fb85-0b31-425d-bc60-d6b5fa11a270" transform="matrix(1.0526315789473684,0,0,1.0526315789473684,-9.831580563595416,-4.210526315789473)" stroke="none" fill="white"><path d="M38.7 46.7c0 8 6.5 14.5 14.5 14.5s14.5-6.5 14.5-14.5-6.5-14.5-14.5-14.5-14.5 6.5-14.5 14.5z"></path><path d="M71.5 57.3c-.6 1.1-1.3 2.1-2.1 3.1-4 4.9-10 8-16.8 8-11.9 0-21.6-9.7-21.6-21.7 0-11.9 9.7-21.6 21.6-21.6 6.7 0 12.7 3.1 16.7 7.8.8.9 1.5 1.9 2.1 3l20.7-5.8c-1.5-3.5-3.4-6.7-5.6-9.6C78.6 10.5 66.4 4 52.6 4 29 4 9.8 23.1 9.8 46.7S29 89.5 52.6 89.5c17.7 0 33-10.8 39.5-26.2l-20.6-6z"></path></g><!----></svg>